<?xml version="1.0" standalone="no"?>
<!DOCTYPE svg PUBLIC "-//W3C//DTD SVG 20010904//EN"
 "http://www.w3.org/TR/2001/REC-SVG-20010904/DTD/svg10.dtd">
<svg version="1.0" xmlns="http://www.w3.org/2000/svg"
 width="384.000000pt" height="384.000000pt" viewBox="0 0 384.000000 384.000000"
 preserveAspectRatio="xMidYMid meet">
<metadata>
Created by potrace 1.11, written by Peter Selinger 2001-2013
</metadata>
<g transform="translate(0.000000,384.000000) scale(0.100000,-0.100000)"
fill="#000000" stroke="none">
<path d="M1630 3214 c-90 -28 -120 -39 -120 -46 0 -4 -9 -8 -19 -8 -11 0 -21
-3 -23 -7 -1 -5 -30 -28 -62 -53 -75 -57 -155 -150 -226 -262 -30 -48 -57 -87
-60 -87 -3 0 -30 34 -60 77 -57 79 -230 262 -248 262 -6 0 -18 3 -27 6 -15 6
-16 0 -11 -57 7 -79 13 -117 33 -194 8 -33 16 -64 17 -70 2 -5 11 -37 21 -70
10 -33 18 -62 17 -65 0 -3 4 -11 10 -17 6 -7 7 -13 3 -13 -4 0 -3 -6 3 -12 5
-7 15 -33 22 -58 7 -25 20 -61 29 -81 21 -43 20 -56 -13 -122 -43 -90 -126
-268 -126 -272 0 -2 -26 -57 -57 -122 -31 -65 -58 -120 -58 -123 -2 -10 -56
-126 -71 -152 -8 -16 -12 -28 -7 -28 4 0 3 -4 -2 -8 -6 -4 -30 -50 -55 -102
-24 -52 -46 -97 -49 -100 -4 -3 -13 -18 -21 -34 -27 -52 -64 -83 -128 -106
-101 -37 -118 -65 -172 -278 -40 -154 -34 -215 24 -270 19 -17 36 -32 39 -32
2 0 22 -8 43 -17 33 -14 68 -20 77 -13 1 1 11 3 23 4 47 5 118 59 275 207 46
43 68 91 63 139 -10 98 -5 123 33 184 41 67 156 296 168 336 4 14 14 33 23 43
8 9 12 17 8 17 -3 0 1 11 10 24 8 14 15 26 15 28 -2 12 13 48 20 48 5 0 9 6 9
13 0 8 17 49 38 93 21 43 49 102 62 131 13 29 26 50 30 48 4 -2 29 -53 55
-112 208 -467 379 -788 504 -943 121 -151 256 -233 405 -247 52 -4 86 0 156
22 108 34 327 240 381 359 7 14 16 26 21 26 4 0 8 5 8 11 0 6 6 16 13 24 11
10 19 3 48 -41 19 -30 37 -54 42 -54 4 0 7 -5 7 -11 0 -30 205 -250 252 -271
15 -7 28 -17 28 -22 0 -4 6 -3 14 4 8 6 13 17 11 23 -2 7 -7 37 -10 67 -12
117 -90 399 -146 525 -20 46 -27 73 -21 80 4 4 7 10 8 13 1 10 17 47 69 157
26 55 61 129 77 165 17 36 53 112 80 170 47 98 70 148 73 160 8 31 148 312
183 367 22 34 51 58 82 68 3 1 14 5 25 9 11 4 32 12 47 18 57 21 79 64 125
238 30 117 37 213 17 251 -26 51 -119 106 -180 107 -38 0 -124 -42 -172 -84
-182 -163 -213 -202 -206 -262 12 -94 8 -130 -23 -178 -36 -56 -141 -259 -165
-319 -9 -22 -31 -71 -49 -110 -18 -38 -33 -72 -34 -75 -1 -3 -18 -40 -38 -83
-21 -43 -37 -82 -37 -88 0 -5 -4 -9 -8 -9 -4 0 -14 -17 -21 -37 -8 -21 -20
-47 -27 -57 -14 -21 -7 -33 -104 179 -65 142 -180 385 -253 535 -57 116 -209
361 -228 368 -5 2 -9 8 -9 14 0 5 -6 15 -12 22 -7 7 -27 28 -43 47 -65 74
-193 163 -248 173 -12 3 -22 5 -22 6 0 8 -154 20 -175 14z m98 -338 c21 -4 87
-58 112 -93 14 -19 30 -40 35 -46 6 -7 26 -34 45 -62 18 -27 36 -52 39 -55 6
-5 18 -25 45 -75 6 -11 13 -22 16 -25 13 -13 219 -444 310 -650 21 -47 52
-115 69 -152 81 -176 91 -199 91 -209 0 -21 -96 -196 -153 -279 -62 -90 -138
-170 -185 -194 -74 -38 -161 37 -311 268 -40 61 -181 331 -186 356 -1 3 -25
55 -54 115 -52 108 -66 140 -71 160 -1 6 -11 22 -21 37 -10 14 -19 30 -19 35
0 5 -13 37 -30 71 -16 34 -30 64 -30 66 0 5 -97 215 -109 237 -19 34 147 316
243 412 80 81 108 100 136 90 8 -3 21 -6 28 -7z"/>
</g>
</svg>
