<?xml version="1.0" encoding="UTF-8" standalone="no"?>
<!-- Created with Inkscape (http://www.inkscape.org/) -->

<svg
   xmlns:dc="http://purl.org/dc/elements/1.1/"
   xmlns:cc="http://creativecommons.org/ns#"
   xmlns:rdf="http://www.w3.org/1999/02/22-rdf-syntax-ns#"
   xmlns:svg="http://www.w3.org/2000/svg"
   xmlns="http://www.w3.org/2000/svg"
   xmlns:sodipodi="http://sodipodi.sourceforge.net/DTD/sodipodi-0.dtd"
   xmlns:inkscape="http://www.inkscape.org/namespaces/inkscape"
   width="1800"
   height="1800"
   viewBox="0 0 1800 1800"
   id="svg2"
   version="1.1"
   inkscape:version="0.91 r13725"
   sodipodi:docname="biopython_icon.svg"
   inkscape:export-filename="F:\Informatik\biopython_website\assets\images\biopython_icon.png"
   inkscape:export-xdpi="1.6"
   inkscape:export-ydpi="1.6">
  <defs
     id="defs4" />
  <sodipodi:namedview
     id="base"
     pagecolor="#ffffff"
     bordercolor="#666666"
     borderopacity="1.0"
     inkscape:pageopacity="0.0"
     inkscape:pageshadow="2"
     inkscape:zoom="0.35355339"
     inkscape:cx="978.2474"
     inkscape:cy="-1243.2191"
     inkscape:document-units="px"
     inkscape:current-layer="layer1"
     showgrid="false"
     inkscape:window-width="1920"
     inkscape:window-height="1017"
     inkscape:window-x="-8"
     inkscape:window-y="1042"
     inkscape:window-maximized="1"
     units="px"
     showguides="true"
     inkscape:guide-bbox="true">
    <sodipodi:guide
       position="898,640"
       orientation="1,0"
       id="guide4150" />
  </sodipodi:namedview>
  <metadata
     id="metadata7">
    <rdf:RDF>
      <cc:Work
         rdf:about="">
        <dc:format>image/svg+xml</dc:format>
        <dc:type
           rdf:resource="http://purl.org/dc/dcmitype/StillImage" />
        <dc:title></dc:title>
      </cc:Work>
    </rdf:RDF>
  </metadata>
  <g
     inkscape:label="Layer 1"
     inkscape:groupmode="layer"
     id="layer1"
     transform="translate(0,747.63782)">
    <g
       id="g4310"
       transform="matrix(4.4382931,0,0,4.4382931,-595.1727,-924.7582)">
      <g
         transform="matrix(-1,0,0,-1,673.27502,484.23998)"
         id="g4270">
        <path
           inkscape:connector-curvature="0"
           id="path4272"
           d="m 232.83984,165.83984 c -2.34029,0.1178 -4.57226,0.50153 -6.58789,1.29688 -5.36853,2.11835 -9.42998,5.41958 -12.71679,8.53711 -5.35695,5.08104 -8.99194,10.78613 -12.16797,15.79492 -4.51608,7.12212 -7.61898,14.30099 -10.76172,20.67773 l -0.008,0.01 -0.004,0.01 c -4.01139,8.18284 -7.59939,16.32716 -11.30664,24.17187 l 0,0.002 -0.002,0.002 c 0,0 -4.91016,10.40585 -6.92383,14.75 -2.73853,5.90789 -5.36497,12.16235 -7.61328,16.58593 -2.24831,4.42358 -2.87748,5.82106 -6.02344,10.78907 -3.14596,4.96801 -13.4469,5.35659 -16.92773,12.92187 -3.48083,7.56528 1.20507,25.22266 2.08007,26.78516 1.6875,0.25 20.17367,-0.90951 26.10938,-7.20313 5.93571,-6.29362 2.64549,-17.08216 5.63476,-21.80273 2.98927,-4.72057 4.38596,-7.36908 6.95703,-12.42774 2.57109,-5.05866 5.44856,-11.88794 7.92774,-17.23632 1.91806,-4.13789 6.85902,-14.61206 6.86328,-14.6211 l 0.004,-0.006 c 3.8558,-8.15933 7.40779,-16.21196 11.17968,-23.90625 3.40785,-6.91584 6.28223,-13.39606 9.70313,-18.79101 3.06371,-4.83165 5.94393,-9.05657 9.04102,-11.99414 1.99057,-1.88806 3.89926,-3.2162 5.54296,-4.01758 l 0,-20.32813 z"
           style="color:#000000;font-style:normal;font-variant:normal;font-weight:normal;font-stretch:normal;font-size:medium;line-height:normal;font-family:sans-serif;text-indent:0;text-align:start;text-decoration:none;text-decoration-line:none;text-decoration-style:solid;text-decoration-color:#000000;letter-spacing:normal;word-spacing:normal;text-transform:none;direction:ltr;block-progression:tb;writing-mode:lr-tb;baseline-shift:baseline;text-anchor:start;white-space:normal;clip-rule:nonzero;display:inline;overflow:visible;visibility:visible;opacity:1;isolation:auto;mix-blend-mode:normal;color-interpolation:sRGB;color-interpolation-filters:linearRGB;solid-color:#000000;solid-opacity:1;fill:#ffd141;fill-opacity:1;fill-rule:nonzero;stroke:#ffd141;stroke-width:0.45062369;stroke-linecap:butt;stroke-linejoin:miter;stroke-miterlimit:4;stroke-dasharray:none;stroke-dashoffset:0;stroke-opacity:1;color-rendering:auto;image-rendering:auto;shape-rendering:auto;text-rendering:auto;enable-background:accumulate" />
        <circle
           r="1.5"
           cy="301.03751"
           cx="148.42679"
           id="circle4274"
           style="fill:#ffffff;fill-opacity:1;stroke:none;stroke-width:20;stroke-linecap:butt;stroke-miterlimit:4;stroke-dasharray:none;stroke-dashoffset:0;stroke-opacity:1" />
        <circle
           r="1.5"
           cy="307.41251"
           cx="158.11429"
           id="circle4276"
           style="fill:#ffffff;fill-opacity:1;stroke:none;stroke-width:20;stroke-linecap:butt;stroke-miterlimit:4;stroke-dasharray:none;stroke-dashoffset:0;stroke-opacity:1" />
      </g>
      <path
         inkscape:connector-curvature="0"
         style="color:#000000;font-style:normal;font-variant:normal;font-weight:normal;font-stretch:normal;font-size:medium;line-height:normal;font-family:sans-serif;text-indent:0;text-align:start;text-decoration:none;text-decoration-line:none;text-decoration-style:solid;text-decoration-color:#000000;letter-spacing:normal;word-spacing:normal;text-transform:none;direction:ltr;block-progression:tb;writing-mode:lr-tb;baseline-shift:baseline;text-anchor:start;white-space:normal;clip-rule:nonzero;display:inline;overflow:visible;visibility:visible;opacity:1;isolation:auto;mix-blend-mode:normal;color-interpolation:sRGB;color-interpolation-filters:linearRGB;solid-color:#000000;solid-opacity:1;fill:#ffd141;fill-opacity:1;fill-rule:nonzero;stroke:#ffd141;stroke-width:0.45062369;stroke-linecap:butt;stroke-linejoin:miter;stroke-miterlimit:4;stroke-dasharray:none;stroke-dashoffset:0;stroke-opacity:1;color-rendering:auto;image-rendering:auto;shape-rendering:auto;text-rendering:auto;enable-background:accumulate"
         d="m 345.4801,185.77514 0,-19.95704 c -0.35046,-9.3e-4 -0.62802,-0.1107 -0.98828,-0.0957 -9.82504,0.40906 -15.87448,6.33467 -20.01563,10 -7.2504,6.41733 -10.71127,14.02086 -14.06836,19.32227 -2.62145,4.13972 -4.87449,8.3303 -6.95703,12.42773 -3.05963,6.01989 -5.44856,11.88794 -7.92773,17.23633 -1.792,3.86593 -5.83359,12.4337 -6.41211,13.66016 l -0.0449,0.0566 -0.47461,1.04492 c 0,0 -7.38322,16.19328 -11.11329,23.76172 -3.4119,6.9229 -6.2889,13.4107 -9.71289,18.81054 -3.06371,4.83165 -5.94197,9.05658 -9.03906,11.99415 -2.28082,2.16335 -4.5253,3.74508 -6.29492,4.44335 -0.15911,0.0628 -0.27947,0.0535 -0.13672,0.0684 l 0,19.86133 c 2.68249,-0.0127 5.20755,-0.43084 7.47656,-1.32617 5.36852,-2.11835 9.43194,-5.41958 12.71875,-8.53711 5.35696,-5.08104 8.98999,-10.78418 12.16602,-15.79297 4.51608,-7.12212 7.61898,-14.30295 10.76172,-20.67969 3.90846,-7.93045 10.26258,-21.90458 10.86523,-23.22851 0.004,-0.009 0.0745,-0.15795 0.0781,-0.16602 l 0.38281,-0.80859 c 0,0 4.91016,-10.40586 6.92383,-14.75 2.73852,-5.90789 5.05152,-11.54562 7.61328,-16.58594 1.93484,-3.80683 3.90127,-7.4378 6.02344,-10.78906 4.16975,-6.58475 7.1431,-12.13965 10.42773,-15.04688 3.69977,-3.27466 6.95482,-4.96566 7.5918,-4.99218 0.004,-1.6e-4 0.14387,0.0651 0.15625,0.0684 z"
         id="path4266" />
      <path
         id="path4252"
         d="m 232.83984,165.83984 0,20.32813 c 0.23968,-0.11685 0.75578,-0.37674 0.98098,-0.4656 0.19221,-0.0202 0.17299,-0.0148 -0.0786,-0.0383 1.69259,0.15841 3.49879,0.81797 4.55469,1.55078 4.27021,2.96363 8.23535,8.88379 12.82031,15.78321 4.60129,6.92402 8.17417,15.48874 12.59765,24.54101 6.40732,13.11204 12.2085,26.89324 18.79102,40.68555 2.95379,6.18907 5.86861,12.95971 9.75781,19.76172 2.57447,4.50259 5.43063,8.85021 8.53711,13.00195 1.6613,2.22028 3.86411,6.28061 8.70117,9.88672 3.83632,2.86003 9.60957,7.52366 18.29297,7.54688 l 0,-19.95704 c -0.29759,-0.0786 -2.94483,-1.09348 -6.33789,-3.62304 -0.67418,-0.50262 -2.18749,-2.55216 -4.64453,-5.83594 -2.61464,-3.4944 -5.01994,-7.15974 -7.18555,-10.94727 -3.15865,-5.52431 -5.91028,-11.82197 -9.07226,-18.44726 -6.31238,-13.22628 -12.13238,-27.06533 -18.86914,-40.85156 -4.0366,-8.26054 -7.84638,-17.70532 -13.91016,-26.83008 -4.29815,-6.46784 -9.16105,-14.95918 -18.07617,-21.14649 -4.35875,-3.02506 -9.22213,-4.57519 -14.0918,-5.03125 l -0.002,0 c -0.96847,-0.0905 -1.84969,0.0418 -2.76563,0.0879 z"
         style="color:#000000;font-style:normal;font-variant:normal;font-weight:normal;font-stretch:normal;font-size:medium;line-height:normal;font-family:sans-serif;text-indent:0;text-align:start;text-decoration:none;text-decoration-line:none;text-decoration-style:solid;text-decoration-color:#000000;letter-spacing:normal;word-spacing:normal;text-transform:none;direction:ltr;block-progression:tb;writing-mode:lr-tb;baseline-shift:baseline;text-anchor:start;white-space:normal;clip-rule:nonzero;display:inline;overflow:visible;visibility:visible;opacity:1;isolation:auto;mix-blend-mode:normal;color-interpolation:sRGB;color-interpolation-filters:linearRGB;solid-color:#000000;solid-opacity:1;fill:#37709f;fill-opacity:1;fill-rule:nonzero;stroke:#37709f;stroke-width:0.45062369;stroke-linecap:butt;stroke-linejoin:miter;stroke-miterlimit:4;stroke-dasharray:none;stroke-dashoffset:0;stroke-opacity:1;color-rendering:auto;image-rendering:auto;shape-rendering:auto;text-rendering:auto;enable-background:accumulate"
         inkscape:connector-curvature="0"
         sodipodi:nodetypes="ccccsssssssccssssssscccc" />
      <path
         id="path4247"
         d="m 327.79492,298.46484 0,19.95704 c 0.35046,9.3e-4 0.62802,0.1107 0.98828,0.0957 9.82504,-0.40906 15.87448,-6.33467 20.01563,-10 7.2504,-6.41733 10.71127,-14.02086 14.06836,-19.32227 2.62145,-4.13972 4.87449,-8.3303 6.95703,-12.42773 3.05963,-6.01989 5.44856,-11.88794 7.92773,-17.23633 1.792,-3.86593 5.83359,-12.4337 6.41211,-13.66016 l 0.0449,-0.0566 0.47461,-1.04492 c 0,0 7.38322,-16.19328 11.11329,-23.76172 3.4119,-6.9229 6.2889,-13.4107 9.71289,-18.81054 3.06371,-4.83165 5.94197,-9.05658 9.03906,-11.99415 2.28082,-2.16335 4.5253,-3.74508 6.29492,-4.44335 0.15911,-0.0628 0.27947,-0.0535 0.13672,-0.0684 l 0,-19.86133 c -2.68249,0.0127 -5.20755,0.43084 -7.47656,1.32617 -5.36852,2.11835 -9.43194,5.41958 -12.71875,8.53711 -5.35696,5.08104 -8.98999,10.78418 -12.16602,15.79297 -4.51608,7.12212 -7.61898,14.30295 -10.76172,20.67969 -3.90846,7.93045 -10.26258,21.90458 -10.86523,23.22851 -0.004,0.009 -0.0745,0.15795 -0.0781,0.16602 l -0.38281,0.80859 c 0,0 -4.91016,10.40586 -6.92383,14.75 -2.73852,5.90789 -5.05152,11.54562 -7.61328,16.58594 -1.93484,3.80683 -3.90127,7.4378 -6.02344,10.78906 -4.16975,6.58475 -7.1431,12.13965 -10.42773,15.04688 -3.69977,3.27466 -6.95482,4.96566 -7.5918,4.99218 -0.004,1.6e-4 -0.14387,-0.0651 -0.15625,-0.0684 z"
         style="color:#000000;font-style:normal;font-variant:normal;font-weight:normal;font-stretch:normal;font-size:medium;line-height:normal;font-family:sans-serif;text-indent:0;text-align:start;text-decoration:none;text-decoration-line:none;text-decoration-style:solid;text-decoration-color:#000000;letter-spacing:normal;word-spacing:normal;text-transform:none;direction:ltr;block-progression:tb;writing-mode:lr-tb;baseline-shift:baseline;text-anchor:start;white-space:normal;clip-rule:nonzero;display:inline;overflow:visible;visibility:visible;opacity:1;isolation:auto;mix-blend-mode:normal;color-interpolation:sRGB;color-interpolation-filters:linearRGB;solid-color:#000000;solid-opacity:1;fill:#37709f;fill-opacity:1;fill-rule:nonzero;stroke:#37709f;stroke-width:0.45062369;stroke-linecap:butt;stroke-linejoin:miter;stroke-miterlimit:4;stroke-dasharray:none;stroke-dashoffset:0;stroke-opacity:1;color-rendering:auto;image-rendering:auto;shape-rendering:auto;text-rendering:auto;enable-background:accumulate"
         inkscape:connector-curvature="0" />
      <path
         id="path3102"
         d="m 420.98047,165.83008 0,19.86133 c -0.0163,-0.002 0.0414,-0.005 0.0156,-0.008 1.6926,0.15841 3.49684,0.81602 4.55274,1.54883 4.27021,2.96363 8.23731,8.88378 12.82226,15.7832 4.6013,6.92401 8.17418,15.49069 12.59766,24.54297 6.40732,13.11204 12.20654,26.89325 18.78906,40.68555 7.61804,18.48397 25.96566,41.91891 32.79492,42.99609 1.54657,-6.88352 -6.35711,-33.99084 -14.74414,-51.61132 -6.31238,-13.22628 -12.13433,-27.06534 -18.87109,-40.85157 -4.0366,-8.26054 -7.84637,-17.70531 -13.91016,-26.83007 -4.29814,-6.46783 -9.15908,-14.95723 -18.07422,-21.14454 -4.3593,-3.02545 -9.22344,-4.57738 -14.09374,-5.0332 -0.65812,-0.0616 -1.24518,0.0575 -1.87891,0.0606 z"
         style="color:#000000;font-style:normal;font-variant:normal;font-weight:normal;font-stretch:normal;font-size:medium;line-height:normal;font-family:sans-serif;text-indent:0;text-align:start;text-decoration:none;text-decoration-line:none;text-decoration-style:solid;text-decoration-color:#000000;letter-spacing:normal;word-spacing:normal;text-transform:none;direction:ltr;block-progression:tb;writing-mode:lr-tb;baseline-shift:baseline;text-anchor:start;white-space:normal;clip-rule:nonzero;display:inline;overflow:visible;visibility:visible;opacity:1;isolation:auto;mix-blend-mode:normal;color-interpolation:sRGB;color-interpolation-filters:linearRGB;solid-color:#000000;solid-opacity:1;fill:#37709f;fill-opacity:1;fill-rule:nonzero;stroke:#37709f;stroke-width:0.45062369;stroke-linecap:butt;stroke-linejoin:miter;stroke-miterlimit:4;stroke-dasharray:none;stroke-dashoffset:0;stroke-opacity:1;color-rendering:auto;image-rendering:auto;shape-rendering:auto;text-rendering:auto;enable-background:accumulate"
         inkscape:connector-curvature="0" />
      <g
         id="g4259"
         style="stroke:#37709f;stroke-width:0.45062369;stroke-miterlimit:4;stroke-dasharray:none;stroke-opacity:1">
        <path
           style="color:#000000;font-style:normal;font-variant:normal;font-weight:normal;font-stretch:normal;font-size:medium;line-height:normal;font-family:sans-serif;text-indent:0;text-align:start;text-decoration:none;text-decoration-line:none;text-decoration-style:solid;text-decoration-color:#000000;letter-spacing:normal;word-spacing:normal;text-transform:none;direction:ltr;block-progression:tb;writing-mode:lr-tb;baseline-shift:baseline;text-anchor:start;white-space:normal;clip-rule:nonzero;display:inline;overflow:visible;visibility:visible;opacity:1;isolation:auto;mix-blend-mode:normal;color-interpolation:sRGB;color-interpolation-filters:linearRGB;solid-color:#000000;solid-opacity:1;fill:#37709f;fill-opacity:1;fill-rule:nonzero;stroke:#37709f;stroke-width:0.45062369;stroke-linecap:butt;stroke-linejoin:miter;stroke-miterlimit:4;stroke-dasharray:none;stroke-dashoffset:0;stroke-opacity:1;color-rendering:auto;image-rendering:auto;shape-rendering:auto;text-rendering:auto;enable-background:accumulate"
           d="m 232.83984,165.83984 c -2.34029,0.1178 -4.57226,0.50153 -6.58789,1.29688 -5.36853,2.11835 -9.42998,5.41958 -12.71679,8.53711 -5.35695,5.08104 -8.99194,10.78613 -12.16797,15.79492 -4.51608,7.12212 -7.61898,14.30099 -10.76172,20.67773 l -0.008,0.01 -0.004,0.01 c -4.01139,8.18284 -7.59939,16.32716 -11.30664,24.17187 l 0,0.002 -0.002,0.002 c 0,0 -4.91016,10.40585 -6.92383,14.75 -2.73853,5.90789 -5.36497,12.16235 -7.61328,16.58593 -2.24831,4.42358 -2.87748,5.82106 -6.02344,10.78907 -3.14596,4.96801 -13.4469,5.35659 -16.92773,12.92187 -3.48083,7.56528 1.20507,25.22266 2.08007,26.78516 1.6875,0.25 20.17367,-0.90951 26.10938,-7.20313 5.93571,-6.29362 2.64549,-17.08216 5.63476,-21.80273 2.98927,-4.72057 4.38596,-7.36908 6.95703,-12.42774 2.57109,-5.05866 5.44856,-11.88794 7.92774,-17.23632 1.91806,-4.13789 6.85902,-14.61206 6.86328,-14.6211 l 0.004,-0.006 c 3.8558,-8.15933 7.40779,-16.21196 11.17968,-23.90625 3.40785,-6.91584 6.28223,-13.39606 9.70313,-18.79101 3.06371,-4.83165 5.94393,-9.05657 9.04102,-11.99414 1.99057,-1.88806 3.89926,-3.2162 5.54296,-4.01758 l 0,-20.32813 z"
           id="path4257"
           inkscape:connector-curvature="0" />
        <circle
           style="fill:#ffffff;fill-opacity:1;stroke:#37709f;stroke-width:0.45062369;stroke-linecap:butt;stroke-miterlimit:4;stroke-dasharray:none;stroke-dashoffset:0;stroke-opacity:1"
           id="path4314"
           cx="148.42679"
           cy="301.03751"
           r="1.5" />
        <circle
           style="fill:#ffffff;fill-opacity:1;stroke:#37709f;stroke-width:0.45062369;stroke-linecap:butt;stroke-miterlimit:4;stroke-dasharray:none;stroke-dashoffset:0;stroke-opacity:1"
           id="path4314-0"
           cx="158.11429"
           cy="307.41251"
           r="1.5" />
      </g>
      <path
         inkscape:connector-curvature="0"
         style="color:#000000;font-style:normal;font-variant:normal;font-weight:normal;font-stretch:normal;font-size:medium;line-height:normal;font-family:sans-serif;text-indent:0;text-align:start;text-decoration:none;text-decoration-line:none;text-decoration-style:solid;text-decoration-color:#000000;letter-spacing:normal;word-spacing:normal;text-transform:none;direction:ltr;block-progression:tb;writing-mode:lr-tb;baseline-shift:baseline;text-anchor:start;white-space:normal;clip-rule:nonzero;display:inline;overflow:visible;visibility:visible;opacity:1;isolation:auto;mix-blend-mode:normal;color-interpolation:sRGB;color-interpolation-filters:linearRGB;solid-color:#000000;solid-opacity:1;fill:#ffd141;fill-opacity:1;fill-rule:nonzero;stroke:#ffd141;stroke-width:0.45062369;stroke-linecap:butt;stroke-linejoin:miter;stroke-miterlimit:4;stroke-dasharray:none;stroke-dashoffset:0;stroke-opacity:1;color-rendering:auto;image-rendering:auto;shape-rendering:auto;text-rendering:auto;enable-background:accumulate"
         d="m 440.43518,318.40014 0,-20.32813 c -0.23968,0.11685 -0.52676,0.33692 -0.75196,0.42578 -0.17728,0.07 -0.40201,0.0546 -0.15039,0.0781 -1.69259,-0.15841 -3.49879,-0.81797 -4.55469,-1.55078 -4.27021,-2.96363 -8.23535,-8.88379 -12.82031,-15.78321 -4.60129,-6.92402 -8.17417,-15.48874 -12.59765,-24.54101 -6.40732,-13.11204 -12.2085,-26.89324 -18.79102,-40.68555 -2.95379,-6.18907 -5.86861,-12.95971 -9.75781,-19.76172 -2.57447,-4.50259 -5.43063,-8.85021 -8.53711,-13.00195 -1.6613,-2.22028 -3.86411,-6.28061 -8.70117,-9.88672 -3.83632,-2.86003 -9.60957,-7.52366 -18.29297,-7.54688 l 0,19.95704 c 0.29759,0.0786 2.94483,1.09348 6.33789,3.62304 0.67418,0.50262 2.18749,2.55216 4.64453,5.83594 2.61464,3.4944 5.01994,7.15974 7.18555,10.94727 3.15865,5.52431 5.91028,11.82197 9.07226,18.44726 6.31238,13.22628 12.13238,27.06533 18.86914,40.85156 4.0366,8.26054 7.84638,17.70532 13.91016,26.83008 4.29815,6.46784 9.16105,14.95918 18.07617,21.14649 4.35875,3.02506 9.22213,4.57519 14.0918,5.03125 l 0.002,0 c 0.96847,0.0905 1.84969,-0.0418 2.76563,-0.0879 z"
         id="path4264" />
      <path
         inkscape:connector-curvature="0"
         style="color:#000000;font-style:normal;font-variant:normal;font-weight:normal;font-stretch:normal;font-size:medium;line-height:normal;font-family:sans-serif;text-indent:0;text-align:start;text-decoration:none;text-decoration-line:none;text-decoration-style:solid;text-decoration-color:#000000;letter-spacing:normal;word-spacing:normal;text-transform:none;direction:ltr;block-progression:tb;writing-mode:lr-tb;baseline-shift:baseline;text-anchor:start;white-space:normal;clip-rule:nonzero;display:inline;overflow:visible;visibility:visible;opacity:1;isolation:auto;mix-blend-mode:normal;color-interpolation:sRGB;color-interpolation-filters:linearRGB;solid-color:#000000;solid-opacity:1;fill:#ffd141;fill-opacity:1;fill-rule:nonzero;stroke:#ffd141;stroke-width:0.45062369;stroke-linecap:butt;stroke-linejoin:miter;stroke-miterlimit:4;stroke-dasharray:none;stroke-dashoffset:0;stroke-opacity:1;color-rendering:auto;image-rendering:auto;shape-rendering:auto;text-rendering:auto;enable-background:accumulate"
         d="m 252.29455,318.4099 0,-19.86133 c 0.0163,0.002 -0.0414,0.005 -0.0156,0.008 -1.6926,-0.15841 -3.49684,-0.81602 -4.55274,-1.54883 -4.27021,-2.96363 -8.23731,-8.88378 -12.82226,-15.7832 -4.6013,-6.92401 -8.17418,-15.49069 -12.59766,-24.54297 -6.40732,-13.11204 -12.20654,-26.89325 -18.78906,-40.68555 -7.61804,-18.48397 -25.96566,-41.91891 -32.79492,-42.99609 -1.54657,6.88352 6.35711,33.99084 14.74414,51.61132 6.31238,13.22628 12.13433,27.06534 18.87109,40.85157 4.0366,8.26054 7.84637,17.70531 13.91016,26.83007 4.29814,6.46783 9.15908,14.95723 18.07422,21.14454 4.3593,3.02545 9.22344,4.57738 14.09374,5.0332 0.65812,0.0616 1.24518,-0.0576 1.87891,-0.0606 z"
         id="path4268" />
    </g>
  </g>
</svg>
