<?xml version="1.0" encoding="UTF-8" standalone="no"?>
<!-- Created with Inkscape (http://www.inkscape.org/) -->

<svg
   xmlns:dc="http://purl.org/dc/elements/1.1/"
   xmlns:cc="http://creativecommons.org/ns#"
   xmlns:rdf="http://www.w3.org/1999/02/22-rdf-syntax-ns#"
   xmlns:svg="http://www.w3.org/2000/svg"
   xmlns="http://www.w3.org/2000/svg"
   xmlns:sodipodi="http://sodipodi.sourceforge.net/DTD/sodipodi-0.dtd"
   xmlns:inkscape="http://www.inkscape.org/namespaces/inkscape"
   width="950"
   height="950"
   viewBox="0 0 950 950"
   id="svg2"
   version="1.1"
   inkscape:version="0.91 r13725"
   sodipodi:docname="biopython_icon_alt.svg"
   inkscape:export-filename="F:\Informatik\biopython_website\assets\images\biopython_icon.png"
   inkscape:export-xdpi="1.6"
   inkscape:export-ydpi="1.6">
  <defs
     id="defs4" />
  <sodipodi:namedview
     id="base"
     pagecolor="#ffffff"
     bordercolor="#666666"
     borderopacity="1.0"
     inkscape:pageopacity="0.0"
     inkscape:pageshadow="2"
     inkscape:zoom="0.70710678"
     inkscape:cx="700.5542"
     inkscape:cy="480.50073"
     inkscape:document-units="px"
     inkscape:current-layer="g4310"
     showgrid="false"
     inkscape:window-width="1920"
     inkscape:window-height="1017"
     inkscape:window-x="-8"
     inkscape:window-y="1042"
     inkscape:window-maximized="1"
     units="px"
     showguides="true"
     inkscape:guide-bbox="true">
    <sodipodi:guide
       position="898,640"
       orientation="1,0"
       id="guide4150" />
  </sodipodi:namedview>
  <metadata
     id="metadata7">
    <rdf:RDF>
      <cc:Work
         rdf:about="">
        <dc:format>image/svg+xml</dc:format>
        <dc:type
           rdf:resource="http://purl.org/dc/dcmitype/StillImage" />
        <dc:title></dc:title>
      </cc:Work>
    </rdf:RDF>
  </metadata>
  <g
     inkscape:label="Layer 1"
     inkscape:groupmode="layer"
     id="layer1"
     transform="translate(0,-102.36218)">
    <g
       id="g4310"
       transform="matrix(4.4382931,0,0,4.4382931,-595.1727,-924.7582)">
      <g
         transform="matrix(-1,0,0,-1,484.53134,580.24271)"
         id="g4270">
        <path
           inkscape:connector-curvature="0"
           id="path4272"
           d="m 232.83984,165.83984 c -2.34029,0.1178 -4.57226,0.50153 -6.58789,1.29688 -5.36853,2.11835 -9.42998,5.41958 -12.71679,8.53711 -5.35695,5.08104 -8.99194,10.78613 -12.16797,15.79492 -4.51608,7.12212 -7.61898,14.30099 -10.76172,20.67773 l -0.008,0.01 -0.004,0.01 c -4.01139,8.18284 -7.59939,16.32716 -11.30664,24.17187 l 0,0.002 -0.002,0.002 c 0,0 -4.91016,10.40585 -6.92383,14.75 -2.73853,5.90789 -5.36497,12.16235 -7.61328,16.58593 -2.24831,4.42358 -2.87748,5.82106 -6.02344,10.78907 -3.14596,4.96801 -13.4469,5.35659 -16.92773,12.92187 -3.48083,7.56528 1.20507,25.22266 2.08007,26.78516 1.6875,0.25 20.17367,-0.90951 26.10938,-7.20313 5.93571,-6.29362 2.64549,-17.08216 5.63476,-21.80273 2.98927,-4.72057 4.38596,-7.36908 6.95703,-12.42774 2.57109,-5.05866 5.44856,-11.88794 7.92774,-17.23632 1.91806,-4.13789 6.85902,-14.61206 6.86328,-14.6211 l 0.004,-0.006 c 3.8558,-8.15933 7.40779,-16.21196 11.17968,-23.90625 3.40785,-6.91584 6.28223,-13.39606 9.70313,-18.79101 3.06371,-4.83165 5.94393,-9.05657 9.04102,-11.99414 1.99057,-1.88806 3.89926,-3.2162 5.54296,-4.01758 l 0,-20.32813 z"
           style="color:#000000;font-style:normal;font-variant:normal;font-weight:normal;font-stretch:normal;font-size:medium;line-height:normal;font-family:sans-serif;text-indent:0;text-align:start;text-decoration:none;text-decoration-line:none;text-decoration-style:solid;text-decoration-color:#000000;letter-spacing:normal;word-spacing:normal;text-transform:none;direction:ltr;block-progression:tb;writing-mode:lr-tb;baseline-shift:baseline;text-anchor:start;white-space:normal;clip-rule:nonzero;display:inline;overflow:visible;visibility:visible;opacity:1;isolation:auto;mix-blend-mode:normal;color-interpolation:sRGB;color-interpolation-filters:linearRGB;solid-color:#000000;solid-opacity:1;fill:#ffd141;fill-opacity:1;fill-rule:nonzero;stroke:#ffd141;stroke-width:0.45062369;stroke-linecap:butt;stroke-linejoin:miter;stroke-miterlimit:4;stroke-dasharray:none;stroke-dashoffset:0;stroke-opacity:1;color-rendering:auto;image-rendering:auto;shape-rendering:auto;text-rendering:auto;enable-background:accumulate" />
        <circle
           r="1.5"
           cy="301.03751"
           cx="148.42679"
           id="circle4274"
           style="fill:#ffffff;fill-opacity:1;stroke:none;stroke-width:20;stroke-linecap:butt;stroke-miterlimit:4;stroke-dasharray:none;stroke-dashoffset:0;stroke-opacity:1" />
        <circle
           r="1.5"
           cy="307.41251"
           cx="158.11429"
           id="circle4276"
           style="fill:#ffffff;fill-opacity:1;stroke:none;stroke-width:20;stroke-linecap:butt;stroke-miterlimit:4;stroke-dasharray:none;stroke-dashoffset:0;stroke-opacity:1" />
      </g>
      <path
         id="path3102"
         d="m 232.23679,261.83281 0,19.86133 c -0.0163,-0.002 -0.25432,0.41042 -0.28012,0.40742 1.55178,-0.24293 3.79256,0.4006 4.84846,1.13341 4.27021,2.96363 8.23731,8.88378 12.82226,15.7832 4.6013,6.92401 8.17418,15.49069 12.59766,24.54297 6.40732,13.11204 12.20654,26.89325 18.78906,40.68555 7.61804,18.48397 25.96566,41.91891 32.79492,42.99609 1.54657,-6.88352 -6.35711,-33.99084 -14.74414,-51.61132 -6.31238,-13.22628 -12.13433,-27.06534 -18.87109,-40.85157 -4.0366,-8.26054 -7.84637,-17.70531 -13.91016,-26.83007 -4.29814,-6.46783 -9.15908,-14.95723 -18.07422,-21.14454 -4.3593,-3.02545 -9.22344,-4.57738 -14.09374,-5.0332 -0.65812,-0.0616 -1.24518,0.0575 -1.87891,0.0606 z"
         style="color:#000000;font-style:normal;font-variant:normal;font-weight:normal;font-stretch:normal;font-size:medium;line-height:normal;font-family:sans-serif;text-indent:0;text-align:start;text-decoration:none;text-decoration-line:none;text-decoration-style:solid;text-decoration-color:#000000;letter-spacing:normal;word-spacing:normal;text-transform:none;direction:ltr;block-progression:tb;writing-mode:lr-tb;baseline-shift:baseline;text-anchor:start;white-space:normal;clip-rule:nonzero;display:inline;overflow:visible;visibility:visible;opacity:1;isolation:auto;mix-blend-mode:normal;color-interpolation:sRGB;color-interpolation-filters:linearRGB;solid-color:#000000;solid-opacity:1;fill:#37709f;fill-opacity:1;fill-rule:nonzero;stroke:#37709f;stroke-width:0.45062369;stroke-linecap:butt;stroke-linejoin:miter;stroke-miterlimit:4;stroke-dasharray:none;stroke-dashoffset:0;stroke-opacity:1;color-rendering:auto;image-rendering:auto;shape-rendering:auto;text-rendering:auto;enable-background:accumulate"
         inkscape:connector-curvature="0"
         sodipodi:nodetypes="cccssscccsssscc" />
      <g
         id="g4259"
         style="stroke:#37709f;stroke-width:0.45062369;stroke-miterlimit:4;stroke-dasharray:none;stroke-opacity:1"
         transform="translate(-1.0367522,96.002744)">
        <path
           style="color:#000000;font-style:normal;font-variant:normal;font-weight:normal;font-stretch:normal;font-size:medium;line-height:normal;font-family:sans-serif;text-indent:0;text-align:start;text-decoration:none;text-decoration-line:none;text-decoration-style:solid;text-decoration-color:#000000;letter-spacing:normal;word-spacing:normal;text-transform:none;direction:ltr;block-progression:tb;writing-mode:lr-tb;baseline-shift:baseline;text-anchor:start;white-space:normal;clip-rule:nonzero;display:inline;overflow:visible;visibility:visible;opacity:1;isolation:auto;mix-blend-mode:normal;color-interpolation:sRGB;color-interpolation-filters:linearRGB;solid-color:#000000;solid-opacity:1;fill:#37709f;fill-opacity:1;fill-rule:nonzero;stroke:#37709f;stroke-width:0.45062369;stroke-linecap:butt;stroke-linejoin:miter;stroke-miterlimit:4;stroke-dasharray:none;stroke-dashoffset:0;stroke-opacity:1;color-rendering:auto;image-rendering:auto;shape-rendering:auto;text-rendering:auto;enable-background:accumulate"
           d="m 232.83984,165.83984 c -2.34029,0.1178 -4.57226,0.50153 -6.58789,1.29688 -5.36853,2.11835 -9.42998,5.41958 -12.71679,8.53711 -5.35695,5.08104 -8.99194,10.78613 -12.16797,15.79492 -4.51608,7.12212 -7.61898,14.30099 -10.76172,20.67773 l -0.008,0.01 -0.004,0.01 c -4.01139,8.18284 -7.59939,16.32716 -11.30664,24.17187 l 0,0.002 -0.002,0.002 c 0,0 -4.91016,10.40585 -6.92383,14.75 -2.73853,5.90789 -5.36497,12.16235 -7.61328,16.58593 -2.24831,4.42358 -2.87748,5.82106 -6.02344,10.78907 -3.14596,4.96801 -13.4469,5.35659 -16.92773,12.92187 -3.48083,7.56528 1.20507,25.22266 2.08007,26.78516 1.6875,0.25 20.17367,-0.90951 26.10938,-7.20313 5.93571,-6.29362 2.64549,-17.08216 5.63476,-21.80273 2.98927,-4.72057 4.38596,-7.36908 6.95703,-12.42774 2.57109,-5.05866 5.44856,-11.88794 7.92774,-17.23632 1.91806,-4.13789 6.85902,-14.61206 6.86328,-14.6211 l 0.004,-0.006 c 3.8558,-8.15933 7.40779,-16.21196 11.17968,-23.90625 3.40785,-6.91584 6.28223,-13.39606 9.70313,-18.79101 3.06371,-4.83165 5.94393,-9.05657 9.04102,-11.99414 1.99057,-1.88806 3.89926,-3.2162 5.54296,-4.01758 l 0,-20.32813 z"
           id="path4257"
           inkscape:connector-curvature="0" />
        <circle
           style="fill:#ffffff;fill-opacity:1;stroke:#37709f;stroke-width:0.45062369;stroke-linecap:butt;stroke-miterlimit:4;stroke-dasharray:none;stroke-dashoffset:0;stroke-opacity:1"
           id="path4314"
           cx="148.42679"
           cy="301.03751"
           r="1.5" />
        <circle
           style="fill:#ffffff;fill-opacity:1;stroke:#37709f;stroke-width:0.45062369;stroke-linecap:butt;stroke-miterlimit:4;stroke-dasharray:none;stroke-dashoffset:0;stroke-opacity:1"
           id="path4314-0"
           cx="158.11429"
           cy="307.41251"
           r="1.5" />
      </g>
      <path
         inkscape:connector-curvature="0"
         style="color:#000000;font-style:normal;font-variant:normal;font-weight:normal;font-stretch:normal;font-size:medium;line-height:normal;font-family:sans-serif;text-indent:0;text-align:start;text-decoration:none;text-decoration-line:none;text-decoration-style:solid;text-decoration-color:#000000;letter-spacing:normal;word-spacing:normal;text-transform:none;direction:ltr;block-progression:tb;writing-mode:lr-tb;baseline-shift:baseline;text-anchor:start;white-space:normal;clip-rule:nonzero;display:inline;overflow:visible;visibility:visible;opacity:1;isolation:auto;mix-blend-mode:normal;color-interpolation:sRGB;color-interpolation-filters:linearRGB;solid-color:#000000;solid-opacity:1;fill:#ffd141;fill-opacity:1;fill-rule:nonzero;stroke:#ffd141;stroke-width:0.45062369;stroke-linecap:butt;stroke-linejoin:miter;stroke-miterlimit:4;stroke-dasharray:none;stroke-dashoffset:0;stroke-opacity:1;color-rendering:auto;image-rendering:auto;shape-rendering:auto;text-rendering:auto;enable-background:accumulate"
         d="m 251.2569,414.41263 0,-19.86133 c 0.0163,0.002 0.21999,-0.40326 0.24579,-0.40026 -0.39431,0.14317 -3.50929,-0.81602 -4.56519,-1.54883 -4.27021,-2.96363 -8.48625,-8.47552 -13.0712,-15.37494 -4.6013,-6.92401 -8.17418,-15.49069 -12.59766,-24.54297 -6.40732,-13.11204 -12.20654,-26.89325 -18.78906,-40.68555 -7.61804,-18.48397 -25.96566,-41.91891 -32.79492,-42.99609 -1.54657,6.88352 6.35711,33.99084 14.74414,51.61132 6.31238,13.22628 12.13433,27.06534 18.87109,40.85157 4.0366,8.26054 7.84637,17.70531 13.91016,26.83007 4.29814,6.46783 9.15908,14.95723 18.07422,21.14454 4.3593,3.02545 9.22344,4.57738 14.09374,5.0332 0.65812,0.0616 1.24518,-0.0576 1.87891,-0.0606 z"
         id="path4268"
         sodipodi:nodetypes="cccssscccsssscc" />
    </g>
  </g>
</svg>
